# xmcd
#
# Track frame offsets:
#	150
#	24185
#	66338
#	101031
#	116055
#
# Disc length: 1788 seconds
#
# Revision: 0
# Processed by: cddbd v1.5.2PL0 Copyright (c) Steve Scherf et al.
# Submitted via: audiograbber 1.83.01
#
DISCID=3d06fa05
DTITLE=Grateful Dead - 92-06-20 Robert F Kennedy Stadium, Washington DC
DYEAR=1900
DGENRE=
TTITLE0=Casey Jones
TTITLE1=Throwing Stones
TTITLE2=One More Saturday Night
TTITLE3=Baba O'Riley
TTITLE4=Tomorrow Never Knows
EXTD=
EXTT0=
EXTT1=
EXTT2=
EXTT3=
EXTT4=
PLAYORDER=
